<?xml version="1.0" standalone="no"?><!DOCTYPE svg PUBLIC "-//W3C//DTD SVG 1.1//EN" "http://www.w3.org/Graphics/SVG/1.1/DTD/svg11.dtd"><svg class="icon" width="200px" height="200.00px" viewBox="0 0 1024 1024" version="1.1" xmlns="http://www.w3.org/2000/svg"><path fill="#333333" d="M783.3 896H231.4c-50.8 0-91.9-41.2-91.9-92V191c0-50.8 41.2-91.9 91.9-91.9h429.1c17 0 30.7 13.7 30.7 30.6 0 17-13.7 30.7-30.7 30.7H231.4c-16.8 0-30.6 13.8-30.6 30.6v613c0 17 13.8 30.7 30.6 30.7h551.7c17 0 30.7-13.7 30.7-30.7V313.5c0-17 13.7-30.6 30.6-30.6 17 0 30.7 13.7 30.7 30.6v490.4c0.2 50.7-41.2 92.1-91.8 92.1z m0 0M555.3 465c-7.9 0-15.7-3-21.8-9.1-12-12-12-31.3 0-43.3l304.7-304.5c12-12 31.3-12 43.3 0 12 12 12 31.3 0 43.3L576.9 456.1c-6 6-13.9 8.9-21.6 8.9z m0 0M476.6 405.4H292.7c-17 0-30.6-13.7-30.6-30.7s13.7-30.6 30.6-30.6h183.9c17 0 30.7 13.7 30.7 30.6 0 17-13.7 30.7-30.7 30.7z m0 0M660.7 589.3h-368c-17 0-30.6-13.7-30.6-30.7s13.7-30.6 30.6-30.6h367.8c17 0 30.7 13.7 30.7 30.6 0 17-13.7 30.7-30.5 30.7z m0 0" /></svg>