<?xml version="1.0" standalone="no"?><!DOCTYPE svg PUBLIC "-//W3C//DTD SVG 1.1//EN" "http://www.w3.org/Graphics/SVG/1.1/DTD/svg11.dtd"><svg class="icon" width="200px" height="200.00px" viewBox="0 0 1024 1024" version="1.1" xmlns="http://www.w3.org/2000/svg"><path fill="#333333" d="M753.664 236.032 272.896 236.032c-16.384 0-29.184-13.312-29.184-29.184 0-16.384 13.312-29.184 29.184-29.184l480.768 0c16.384 0 29.184 13.312 29.184 29.184C782.848 222.72 770.048 236.032 753.664 236.032zM798.72 909.824 227.84 909.824c-16.384 0-29.184-13.312-29.184-29.184 0-16.384 13.312-29.184 29.184-29.184L798.72 851.456c16.384 0 29.184 13.312 29.184 29.184C827.904 896.512 815.104 909.824 798.72 909.824zM659.968 832.512 366.592 832.512c-16.384 0-29.184-13.312-29.184-29.184 0-16.384 13.312-29.184 29.184-29.184l292.864 0c16.384 0 29.184 13.312 29.184 29.184C689.152 819.2 675.84 832.512 659.968 832.512zM512 832.512c-16.384 0-29.184-13.312-29.184-29.184L482.816 206.336c0-16.384 13.312-29.184 29.184-29.184s29.184 13.312 29.184 29.184l0 596.48C541.184 819.2 528.384 832.512 512 832.512zM270.336 587.776c-87.04 0-158.208-71.168-158.208-158.208 0-5.12 1.536-10.24 4.096-14.848l129.024-223.232c5.12-9.216 14.848-14.848 25.6-14.848 10.24 0 19.968 5.632 25.6 14.848l129.024 223.232c2.56 4.608 4.096 9.728 4.096 14.848C428.544 517.12 357.376 587.776 270.336 587.776zM171.008 437.248c3.584 51.2 47.104 92.16 99.328 92.16s95.232-40.448 99.328-92.16L270.336 265.216 171.008 437.248zM320.512 465.408 220.16 465.408c-16.384 0-29.184-13.312-29.184-29.184s13.312-29.184 29.184-29.184l100.864 0c16.384 0 29.184 13.312 29.184 29.184S336.896 465.408 320.512 465.408zM753.664 587.776c-87.04 0-158.208-71.168-158.208-158.208 0-5.12 1.536-10.24 4.096-14.848l129.024-223.232c5.12-9.216 14.848-14.848 25.6-14.848 10.24 0 19.968 5.632 25.6 14.848l129.024 223.232c2.56 4.608 4.096 9.728 4.096 14.848C911.872 517.12 840.704 587.776 753.664 587.776zM654.336 437.248c3.584 51.2 47.104 92.16 99.328 92.16 52.224 0 95.232-40.448 99.328-92.16l-99.328-172.032L654.336 437.248zM803.84 465.408l-100.864 0c-16.384 0-29.184-13.312-29.184-29.184s13.312-29.184 29.184-29.184L803.84 407.04c16.384 0 29.184 13.312 29.184 29.184S820.224 465.408 803.84 465.408z" /></svg>